<?xml version="1.0" encoding="UTF-8" standalone="no"?>
<!-- Created with Inkscape (http://www.inkscape.org/) -->

<svg
   width="288"
   height="224"
   viewBox="0 0 76.199996 59.266668"
   version="1.1"
   id="svg5"
   xmlns="http://www.w3.org/2000/svg"
   xmlns:svg="http://www.w3.org/2000/svg">
  <defs
     id="defs2" />
  <g
     id="layer1"
     transform="translate(-5.4234595,-5.9849434)">
    <rect
       style="fill:#1f2428;fill-opacity:1;stroke:none;stroke-width:0.529167;stroke-dasharray:none;stroke-opacity:1"
       id="rect8459"
       width="76.199997"
       height="59.266666"
       x="5.4234595"
       y="5.9849434"
       rx="4.2333331"
       ry="4.2333331" />
    <path
       style="color:#000000;fill:#c9d1d9;stroke-width:1.00012498;stroke-dasharray:none"
       d="m 71.890625,25.664062 c -1.004958,0.05246 -1.988608,0.486007 -2.712891,1.28711 -1.448566,1.602204 -1.317505,4.088864 0.291016,5.53125 1.60852,1.442387 4.098312,1.313145 5.546875,-0.289063 1.448562,-1.602203 1.317501,-4.088865 -0.291016,-5.53125 -0.804258,-0.721194 -1.829026,-1.050505 -2.833984,-0.998047 z m 0.05664,1.050782 c 0.73323,-0.03826 1.48083,0.204023 2.072265,0.734375 1.182871,1.0607 1.275752,2.857402 0.210938,4.035156 -1.064815,1.177757 -2.873768,1.27164 -4.056641,0.210937 -1.182874,-1.060701 -1.275756,-2.857401 -0.210937,-4.035156 0.532408,-0.588877 1.251144,-0.907051 1.984375,-0.945312 z"
       id="path1723" />
    <path
       style="color:#000000;fill:#c9d1d9;stroke-width:1.00012517;stroke-dasharray:none"
       d="m 45.613281,-70.353516 c -4.028106,0 -7.302734,3.289222 -7.302734,7.330079 0,4.040856 3.274628,7.330078 7.302734,7.330078 4.028107,0 7.302735,-3.289222 7.302735,-7.330078 0,-4.040857 -3.274628,-7.330079 -7.302735,-7.330079 z m 0,1.058594 c 3.453841,0 6.244141,2.800302 6.244141,6.271485 0,3.471182 -2.7903,6.271484 -6.244141,6.271484 -3.453841,0 -6.24414,-2.800302 -6.24414,-6.271484 0,-3.471183 2.790299,-6.271485 6.24414,-6.271485 z"
       id="path5884"
       transform="matrix(-0.10495356,0.99447712,-0.99456631,-0.10410505,0,0)" />
    <path
       style="color:#000000;fill:#c9d1d9;stroke-width:1.00012498;stroke-dasharray:none"
       d="m 59.669922,24.392578 c -5.919092,0 -10.730469,4.791087 -10.730469,10.689453 0,5.898366 4.811377,10.689453 10.730469,10.689453 5.919092,0 10.732422,-4.791087 10.732422,-10.689453 0,-5.898366 -4.81333,-10.689453 -10.732422,-10.689453 z m 0,1.058594 c 5.349469,0 9.673828,4.30681 9.673828,9.630859 0,5.324049 -4.324359,9.63086 -9.673828,9.63086 -5.349469,0 -9.671875,-4.306811 -9.671875,-9.63086 0,-5.324049 4.322406,-9.630859 9.671875,-9.630859 z"
       id="path232-9" />
    <path
       style="color:#000000;fill:#c9d1d9;stroke-width:1.00012498;stroke-dasharray:none"
       d="m 24.134766,11.751953 c -6.858139,0 -12.429688,5.547292 -12.429688,12.380859 0,6.833568 5.571549,12.382813 12.429688,12.382813 6.858138,0 12.43164,-5.549245 12.43164,-12.382813 0,-6.833567 -5.573502,-12.380859 -12.43164,-12.380859 z m 0,1.056641 c 6.288515,0 11.373046,5.064968 11.373046,11.324218 0,6.259251 -5.084531,11.324219 -11.373046,11.324219 -6.288516,0 -11.371094,-5.064968 -11.371094,-11.324219 0,-6.25925 5.082578,-11.324218 11.371094,-11.324218 z"
       id="path232-3" />
    <path
       style="color:#000000;fill:#c9d1d9;stroke-width:1.00012498;stroke-dasharray:none"
       d="m 44.539062,15.138672 c -4.980045,0 -9.03125,4.030976 -9.03125,8.99414 0,4.963165 4.051205,8.996094 9.03125,8.996094 4.980046,0 9.03125,-4.032929 9.03125,-8.996094 0,-4.963164 -4.051204,-8.99414 -9.03125,-8.99414 z m 0,1.05664 c 4.410423,0 7.972657,3.548653 7.972657,7.9375 0,4.388848 -3.562234,7.9375 -7.972657,7.9375 -4.410422,0 -7.972656,-3.548652 -7.972656,-7.9375 0,-4.388847 3.562234,-7.9375 7.972656,-7.9375 z"
       id="path232" />
    <ellipse
       style="vector-effect:non-scaling-stroke;fill:#c9d1d9;fill-opacity:1;stroke:none;stroke-width:0.264582;stroke-opacity:1;-inkscape-stroke:hairline"
       id="path840"
       cx="36.037708"
       cy="24.133686"
       rx="2.1253703"
       ry="2.1166666" />
    <ellipse
       style="vector-effect:non-scaling-stroke;fill:#c9d1d9;fill-opacity:1;stroke:none;stroke-width:0.264583;stroke-opacity:1;-inkscape-stroke:hairline"
       id="path840-2"
       cx="58.695152"
       cy="-6.5570278"
       transform="matrix(0.81016172,0.58620644,-0.58936383,0.80786774,0,0)"
       rx="2.1223674"
       ry="2.1196778" />
    <ellipse
       style="vector-effect:non-scaling-stroke;fill:#c9d1d9;fill-opacity:1;stroke:none;stroke-width:0.264583;stroke-opacity:1;-inkscape-stroke:hairline"
       id="path840-6"
       cx="-17.71913"
       cy="49.82822"
       transform="matrix(0.31016566,-0.95068252,0.95142789,0.30787169,0,0)"
       rx="2.1174991"
       ry="2.1245406" />
    <ellipse
       style="vector-effect:non-scaling-stroke;fill:#c9d1d9;fill-opacity:1;stroke:none;stroke-width:0.264583;stroke-opacity:1;-inkscape-stroke:hairline"
       id="path840-6-5-5"
       cx="-30.247894"
       cy="-45.661694"
       transform="matrix(-0.81016172,0.58620644,-0.58936383,-0.80786774,0,0)"
       rx="2.1223674"
       ry="2.1196778" />
    <ellipse
       style="vector-effect:non-scaling-stroke;fill:#c9d1d9;fill-opacity:1;stroke:none;stroke-width:0.264583;stroke-opacity:1;-inkscape-stroke:hairline"
       id="path840-6-5-2"
       cx="28.203926"
       cy="-34.857285"
       transform="matrix(0.31016566,0.95068252,-0.95142789,0.30787169,0,0)"
       rx="2.1174991"
       ry="2.1245406" />
    <ellipse
       style="vector-effect:non-scaling-stroke;fill:#c9d1d9;fill-opacity:1;stroke:none;stroke-width:0.264583;stroke-opacity:1;-inkscape-stroke:hairline"
       id="path840-7"
       cx="7.9840536"
       cy="33.924927"
       transform="matrix(0.62504733,-0.78058685,0.78308119,0.62191949,0,0)"
       rx="2.1200542"
       ry="2.1219912" />
    <ellipse
       style="vector-effect:non-scaling-stroke;fill:#c9d1d9;fill-opacity:1;stroke:none;stroke-width:0.264583;stroke-opacity:1;-inkscape-stroke:hairline"
       id="path840-7-4"
       cx="-17.027716"
       cy="18.134066"
       transform="matrix(-0.223405,-0.97472571,0.97512196,-0.22166906,0,0)"
       rx="2.1170986"
       ry="2.1249402" />
    <ellipse
       style="vector-effect:non-scaling-stroke;fill:#c9d1d9;fill-opacity:1;stroke:none;stroke-width:0.264583;stroke-opacity:1;-inkscape-stroke:hairline"
       id="path840-7-4-0"
       cx="-20.341736"
       cy="-11.324027"
       transform="matrix(-0.90167252,-0.43241955,0.43531007,-0.90028059,0,0)"
       rx="2.1237347"
       ry="2.1183076" />
    <ellipse
       style="vector-effect:non-scaling-stroke;fill:#c9d1d9;fill-opacity:1;stroke:none;stroke-width:0.264583;stroke-opacity:1;-inkscape-stroke:hairline"
       id="path840-7-4-0-8"
       cx="0.67133754"
       cy="-32.198162"
       transform="matrix(-0.90164993,0.43246666,-0.43535732,-0.90025774,0,0)"
       rx="2.1237342"
       ry="2.1183081" />
    <ellipse
       style="vector-effect:non-scaling-stroke;fill:#c9d1d9;fill-opacity:1;stroke:none;stroke-width:0.264583;stroke-opacity:1;-inkscape-stroke:hairline"
       id="path840-7-4-0-8-8"
       cx="30.040447"
       cy="-28.9163"
       transform="matrix(-0.22335378,0.97473745,-0.97513352,-0.22161819,0,0)"
       rx="2.1170983"
       ry="2.1249404" />
    <ellipse
       style="vector-effect:non-scaling-stroke;fill:#c9d1d9;fill-opacity:1;stroke:none;stroke-width:0.264583;stroke-opacity:1;-inkscape-stroke:hairline"
       id="path840-7-4-0-8-8-4"
       cx="45.781834"
       cy="-3.7535067"
       transform="matrix(0.62508827,0.78055407,-0.78304866,0.62196045,0,0)"
       rx="2.1200547"
       ry="2.1219907" />
    <ellipse
       style="vector-effect:non-scaling-stroke;fill:#c9d1d9;fill-opacity:1;stroke:none;stroke-width:0.264583;stroke-opacity:1;-inkscape-stroke:hairline"
       id="path840-2-1"
       cx="29.961733"
       cy="56.258232"
       transform="matrix(0.91416373,-0.40534514,0.40813103,0.91292336,0,0)"
       rx="2.1239328"
       ry="2.118109" />
    <ellipse
       style="vector-effect:non-scaling-stroke;fill:#c9d1d9;fill-opacity:1;stroke:none;stroke-width:0.264583;stroke-opacity:1;-inkscape-stroke:hairline"
       id="path840-2-1-9-0"
       cx="-79.069878"
       cy="6.5570259"
       transform="matrix(-0.81016172,-0.58620644,0.58936383,-0.80786774,0,0)"
       rx="2.1223674"
       ry="2.1196778" />
    <ellipse
       style="vector-effect:non-scaling-stroke;fill:#c9d1d9;fill-opacity:1;stroke:none;stroke-width:0.264582;stroke-opacity:1;-inkscape-stroke:hairline"
       id="path840-2-1-9-0-2-6"
       cx="18.519104"
       cy="-63.022926"
       transform="matrix(-0.10495356,0.99447712,-0.99456631,-0.10410505,0,0)"
       rx="2.1167619"
       ry="2.1252754" />
    <ellipse
       style="vector-effect:non-scaling-stroke;fill:#c9d1d9;fill-opacity:1;stroke:none;stroke-width:0.264582;stroke-opacity:1;-inkscape-stroke:hairline"
       id="path840-2-1-9-04"
       cx="-56.222038"
       cy="-45.613644"
       transform="matrix(-0.99456631,-0.10410505,0.10495356,-0.99447712,0,0)"
       rx="2.1252754"
       ry="2.1167619" />
    <ellipse
       style="vector-effect:non-scaling-stroke;fill:#c9d1d9;fill-opacity:1;stroke:none;stroke-width:0.264582;stroke-opacity:1;-inkscape-stroke:hairline"
       id="path840-2-1-9-04-7"
       cx="52.387287"
       cy="-63.022907"
       transform="matrix(-0.10495356,0.99447712,-0.99456631,-0.10410505,0,0)"
       rx="2.1167619"
       ry="2.1252754" />
    <ellipse
       style="vector-effect:non-scaling-stroke;fill:#c9d1d9;fill-opacity:1;stroke:none;stroke-width:0.264582;stroke-opacity:1;-inkscape-stroke:hairline"
       id="path840-2-1-9-04-7-7"
       cx="69.823799"
       cy="45.613659"
       transform="matrix(0.99456631,0.10410505,-0.10495356,0.99447712,0,0)"
       rx="2.1252754"
       ry="2.1167619" />
    <ellipse
       style="vector-effect:non-scaling-stroke;fill:#c9d1d9;fill-opacity:1;stroke:none;stroke-width:0.264583;stroke-opacity:1;-inkscape-stroke:hairline"
       id="path840-2-9-2-9-3"
       cx="-50.351494"
       cy="-56.258232"
       transform="matrix(-0.91416373,0.40534514,-0.40813103,-0.91292336,0,0)"
       rx="2.1239328"
       ry="2.118109" />
    <ellipse
       style="vector-effect:non-scaling-stroke;fill:#c9d1d9;fill-opacity:1;stroke:none;stroke-width:0.264582;stroke-opacity:1;-inkscape-stroke:hairline"
       id="path840-2-1-9"
       cx="-38.840015"
       cy="63.022926"
       transform="matrix(0.10495356,-0.99447712,0.99456631,0.10410505,0,0)"
       rx="2.1167619"
       ry="2.1252754" />
  </g>
</svg>
